<svg width="59" height="47" viewBox="0 0 59 47" fill="none" xmlns="http://www.w3.org/2000/svg">
<path d="M57.21 15.2867C57.6542 14.913 58.3148 15.2626 58.3148 15.8533V40.5074C58.3148 43.7022 55.8661 46.2942 52.8478 46.2942H5.46702C2.44877 46.2942 0 43.7022 0 40.5074V15.8654C0 15.2626 0.649208 14.9251 1.10479 15.2988C3.65607 17.3965 7.03878 20.0608 18.6562 28.9941C21.0594 30.8507 25.1141 34.7568 29.1574 34.7327C33.2235 34.7689 37.3579 30.7784 39.67 28.9941C51.2874 20.0608 54.6588 17.3844 57.21 15.2867ZM29.1574 30.8628C31.7998 30.911 35.6039 27.3425 37.5174 25.8717C52.6314 14.262 53.7818 13.2493 57.267 10.3559C57.9276 9.8134 58.3148 8.9695 58.3148 8.07737V5.78677C58.3148 2.59199 55.8661 0 52.8478 0H5.46702C2.44877 0 0 2.59199 0 5.78677V8.07737C0 8.9695 0.387247 9.80135 1.04784 10.3559C4.53307 13.2372 5.68342 14.262 20.7974 25.8717C22.7109 27.3425 26.515 30.911 29.1574 30.8628Z" fill="#1EB4E9"/>
</svg>
