<svg width="48" height="48" viewBox="0 0 48 48" fill="none" xmlns="http://www.w3.org/2000/svg">
<path d="M43.5 6H4.5C2.01469 6 0 8.01469 0 10.5V37.5C0 39.9853 2.01469 42 4.5 42H43.5C45.9853 42 48 39.9853 48 37.5V10.5C48 8.01469 45.9853 6 43.5 6ZM43.5 10.5V14.3255C41.3979 16.0372 38.0467 18.699 30.8825 24.3089C29.3036 25.5508 26.1761 28.5344 24 28.4996C21.8242 28.5348 18.6957 25.5503 17.1175 24.3089C9.95438 18.6998 6.60234 16.0375 4.5 14.3255V10.5H43.5ZM4.5 37.5V20.0998C6.64819 21.8108 9.69459 24.2119 14.3379 27.8479C16.387 29.4608 19.9755 33.0216 24 32.9999C28.0047 33.0216 31.5477 29.5125 33.6612 27.8486C38.3045 24.2127 41.3517 21.811 43.5 20.0999V37.5H4.5Z" fill="#1EB4E9" fill-opacity="0.42"/>
</svg>
