<svg width="48" height="55" viewBox="0 0 48 55" fill="none" xmlns="http://www.w3.org/2000/svg">
<g clip-path="url(#clip0_34_155)">
<path d="M24.0107 15.1467C17.1964 15.1467 11.7 20.6575 11.7 27.4895C11.7 34.3215 17.1964 39.8323 24.0107 39.8323C30.825 39.8323 36.3214 34.3215 36.3214 27.4895C36.3214 20.6575 30.825 15.1467 24.0107 15.1467ZM24.0107 35.5139C19.6072 35.5139 16.0072 31.9153 16.0072 27.4895C16.0072 23.0637 19.5964 19.4651 24.0107 19.4651C28.425 19.4651 32.0143 23.0637 32.0143 27.4895C32.0143 31.9153 28.4143 35.5139 24.0107 35.5139ZM39.6964 14.6418C39.6964 16.2424 38.4107 17.5208 36.825 17.5208C35.2286 17.5208 33.9536 16.2317 33.9536 14.6418C33.9536 13.052 35.2393 11.7629 36.825 11.7629C38.4107 11.7629 39.6964 13.052 39.6964 14.6418ZM47.85 17.5637C47.6679 13.7073 46.7893 10.2913 43.9714 7.47681C41.1643 4.66235 37.7572 3.78149 33.9107 3.58813C29.9464 3.36255 18.0643 3.36255 14.1 3.58813C10.2643 3.77075 6.85715 4.65161 4.0393 7.46606C1.22144 10.2805 0.353581 13.6965 0.160724 17.553C-0.0642761 21.5276 -0.0642761 33.4407 0.160724 37.4153C0.342867 41.2717 1.22144 44.6877 4.0393 47.5022C6.85715 50.3167 10.2536 51.1975 14.1 51.3909C18.0643 51.6165 29.9464 51.6165 33.9107 51.3909C37.7572 51.2082 41.1643 50.3274 43.9714 47.5022C46.7786 44.6877 47.6572 41.2717 47.85 37.4153C48.075 33.4407 48.075 21.5383 47.85 17.5637ZM42.7286 41.6799C41.8929 43.7854 40.275 45.4075 38.1643 46.2561C35.0036 47.5129 27.5036 47.2229 24.0107 47.2229C20.5179 47.2229 13.0072 47.5022 9.85715 46.2561C7.75715 45.4182 6.1393 43.7961 5.29287 41.6799C4.0393 38.511 4.32858 30.9915 4.32858 27.4895C4.32858 23.9875 4.05001 16.4573 5.29287 13.2991C6.12858 11.1936 7.74644 9.57153 9.85715 8.7229C13.0179 7.46606 20.5179 7.7561 24.0107 7.7561C27.5036 7.7561 35.0143 7.47681 38.1643 8.7229C40.2643 9.56079 41.8821 11.1829 42.7286 13.2991C43.9822 16.468 43.6929 23.9875 43.6929 27.4895C43.6929 30.9915 43.9822 38.5217 42.7286 41.6799Z" fill="#2A6984"/>
</g>
<defs>
<clipPath id="clip0_34_155">
<rect width="48" height="55" fill="white"/>
</clipPath>
</defs>
</svg>
