<svg width="37" height="49" viewBox="0 0 37 49" fill="none" xmlns="http://www.w3.org/2000/svg">
<g clip-path="url(#clip0_9_34)">
<path d="M16.5987 48.0114C2.59867 27.8526 0 25.7837 0 18.375C0 8.22674 8.2827 0 18.5 0C28.7173 0 37 8.22674 37 18.375C37 25.7837 34.4013 27.8526 20.4013 48.0114C19.4825 49.3296 17.5174 49.3295 16.5987 48.0114ZM18.5 26.0312C22.7572 26.0312 26.2083 22.6035 26.2083 18.375C26.2083 14.1465 22.7572 10.7188 18.5 10.7188C14.2428 10.7188 10.7917 14.1465 10.7917 18.375C10.7917 22.6035 14.2428 26.0312 18.5 26.0312Z" fill="#1EB4E9"/>
</g>
<defs>
<clipPath id="clip0_9_34">
<rect width="37" height="49" fill="white"/>
</clipPath>
</defs>
</svg>
