<svg width="49" height="48" viewBox="0 0 49 48" fill="none" xmlns="http://www.w3.org/2000/svg">
<g clip-path="url(#clip0_31_149)">
<path d="M1.78036 2.3058L11.7335 0.055799C12.8149 -0.187951 13.9251 0.365174 14.3653 1.35892L18.9591 11.8589C19.361 12.7777 19.0931 13.8558 18.2987 14.4839L12.4991 19.1339C15.9444 26.3246 21.9642 32.3058 29.4577 35.7464L34.2046 30.0652C34.8554 29.287 35.9464 29.0245 36.8843 29.4183L47.603 33.9183C48.627 34.3589 49.1917 35.4464 48.9429 36.5058L46.646 46.2558C46.4067 47.2683 45.488 47.9995 44.4065 47.9995C19.897 47.9995 0.000282288 28.5464 0.000282288 4.49955C0.000282288 3.44955 0.737202 2.54017 1.78036 2.3058Z" fill="#2A6984"/>
</g>
<defs>
<clipPath id="clip0_31_149">
<rect width="49" height="48" fill="white" transform="matrix(-1 0 0 1 49 0)"/>
</clipPath>
</defs>
</svg>
