<svg width="72" height="48" viewBox="0 0 72 48" fill="none" xmlns="http://www.w3.org/2000/svg">
<path d="M11.2267 20.3223C15.1131 20.3223 18.2729 17.2899 18.2729 13.5601C18.2729 9.83029 15.1131 6.79786 11.2267 6.79786C7.34022 6.79786 4.18042 9.83029 4.18042 13.5601C4.18042 17.2899 7.34022 20.3223 11.2267 20.3223ZM60.5504 20.3223C64.4368 20.3223 67.5966 17.2899 67.5966 13.5601C67.5966 9.83029 64.4368 6.79786 60.5504 6.79786C56.6639 6.79786 53.5041 9.83029 53.5041 13.5601C53.5041 17.2899 56.6639 20.3223 60.5504 20.3223ZM64.0735 23.7034H57.0272C55.0895 23.7034 53.339 24.4536 52.0618 25.6687C56.4988 28.0037 59.6476 32.2196 60.3302 37.2278H67.5966C69.5453 37.2278 71.1197 35.7169 71.1197 33.8467V30.4656C71.1197 26.7358 67.9599 23.7034 64.0735 23.7034ZM35.8885 23.7034C42.7036 23.7034 48.2194 18.4098 48.2194 11.8695C48.2194 5.32919 42.7036 0.0356445 35.8885 0.0356445C29.0735 0.0356445 23.5576 5.32919 23.5576 11.8695C23.5576 18.4098 29.0735 23.7034 35.8885 23.7034ZM44.344 27.0845H43.4302C41.1402 28.1411 38.5969 28.7751 35.8885 28.7751C33.1801 28.7751 30.6479 28.1411 28.3468 27.0845H27.433C20.4308 27.0845 14.7498 32.5365 14.7498 39.2565V42.2995C14.7498 45.0995 17.1169 47.3711 20.0345 47.3711H51.7426C54.6601 47.3711 57.0272 45.0995 57.0272 42.2995V39.2565C57.0272 32.5365 51.3462 27.0845 44.344 27.0845ZM19.7152 25.6687C18.4381 24.4536 16.6875 23.7034 14.7498 23.7034H7.70354C3.8171 23.7034 0.657303 26.7358 0.657303 30.4656V33.8467C0.657303 35.7169 2.2317 37.2278 4.18042 37.2278H11.4359C12.1295 32.2196 15.2783 28.0037 19.7152 25.6687Z" fill="#F1FBFF"/>
</svg>
