<svg width="66" height="50" viewBox="0 0 66 50" fill="none" xmlns="http://www.w3.org/2000/svg">
<path d="M50.419 18.527H34.8795V23.9251C34.8795 27.7519 31.5774 30.8655 27.5187 30.8655C23.4601 30.8655 20.1579 27.7519 20.1579 23.9251V12.2035L13.523 15.9629C11.5499 17.0714 10.3435 19.0861 10.3435 21.2453V25.8048L2.16489 30.2582C0.60072 31.1065 0.0588838 32.9958 0.96876 34.4706L9.14742 47.8309C10.0471 49.3057 12.0508 49.807 13.615 48.9587L24.1859 43.204H38.151C41.7598 43.204 44.6939 40.4375 44.6939 37.0347H46.3296C48.1392 37.0347 49.6011 35.6563 49.6011 33.9501V27.7809H50.419C51.7787 27.7809 52.8726 26.7494 52.8726 25.4674V20.8405C52.8726 19.5584 51.7787 18.527 50.419 18.527ZM65.5188 14.9219L57.3402 1.56159C56.4405 0.0867532 54.4367 -0.414498 52.8726 0.433773L42.3017 6.18852H31.8534C30.6266 6.18852 29.4305 6.51626 28.3877 7.12355L24.9629 9.13819C24.0019 9.69728 23.4294 10.6901 23.4294 11.7505V23.9251C23.4294 26.0554 25.2594 27.7809 27.5187 27.7809C29.7781 27.7809 31.6081 26.0554 31.6081 23.9251V15.4424H50.419C53.578 15.4424 56.144 17.8619 56.144 20.8405V23.5877L64.3227 19.1343C65.8869 18.2764 66.4185 16.3967 65.5188 14.9219Z" fill="#F1FBFF"/>
</svg>
