<svg width="52" height="57" viewBox="0 0 52 57" fill="none" xmlns="http://www.w3.org/2000/svg">
<path d="M7.42857 24.9375H8.99554C11.8625 31.2275 18.3857 35.625 26 35.625C33.6143 35.625 40.1375 31.2275 43.0045 24.9375H44.5714C45.5929 24.9375 46.4286 24.1359 46.4286 23.1562V12.4688C46.4286 11.4891 45.5929 10.6875 44.5714 10.6875H43.0045C40.1375 4.39746 33.6143 0 26 0C18.3857 0 11.8625 4.39746 8.99554 10.6875H7.42857C6.40714 10.6875 5.57143 11.4891 5.57143 12.4688V23.1562C5.57143 24.1359 6.40714 24.9375 7.42857 24.9375ZM12.0714 15.1406C12.0714 12.6803 14.567 10.6875 17.6429 10.6875H34.3571C37.433 10.6875 39.9286 12.6803 39.9286 15.1406V17.8125C39.9286 23.7129 34.9375 28.5 28.7857 28.5H23.2143C17.0625 28.5 12.0714 23.7129 12.0714 17.8125V15.1406ZM20.4286 23.1562L21.8214 19.1484L26 17.8125L21.8214 16.4766L20.4286 12.4688L19.0357 16.4766L14.8571 17.8125L19.0357 19.1484L20.4286 23.1562ZM38.025 35.7809C34.5545 37.9295 30.4339 39.1875 26 39.1875C21.5661 39.1875 17.4455 37.9295 13.975 35.7809C6.14018 36.5713 0 42.8613 0 50.5875V51.6562C0 54.6064 2.49554 57 5.57143 57H14.8571V49.875C14.8571 47.9045 16.517 46.3125 18.5714 46.3125H33.4286C35.483 46.3125 37.1429 47.9045 37.1429 49.875V57H46.4286C49.5045 57 52 54.6064 52 51.6562V50.5875C52 42.8613 45.8598 36.5713 38.025 35.7809ZM31.5714 49.875C30.55 49.875 29.7143 50.6766 29.7143 51.6562C29.7143 52.6359 30.55 53.4375 31.5714 53.4375C32.5929 53.4375 33.4286 52.6359 33.4286 51.6562C33.4286 50.6766 32.5929 49.875 31.5714 49.875ZM20.4286 49.875C19.4071 49.875 18.5714 50.6766 18.5714 51.6562V57H22.2857V51.6562C22.2857 50.6766 21.45 49.875 20.4286 49.875Z" fill="#F2F6F8"/>
</svg>
