<svg width="66" height="51" viewBox="0 0 66 51" fill="none" xmlns="http://www.w3.org/2000/svg">
<path d="M32.2111 13.0639L11.5918 30.1343V48.5582C11.5918 49.0353 11.7803 49.4928 12.1159 49.8301C12.4515 50.1674 12.9066 50.3569 13.3812 50.3569L25.9136 50.3243C26.3866 50.3219 26.8395 50.1314 27.1731 49.7943C27.5067 49.4573 27.694 49.0011 27.694 48.5256V37.7663C27.694 37.2892 27.8826 36.8317 28.2181 36.4944C28.5537 36.1571 29.0088 35.9676 29.4834 35.9676H36.641C37.1155 35.9676 37.5707 36.1571 37.9062 36.4944C38.2418 36.8317 38.4303 37.2892 38.4303 37.7663V48.5178C38.4296 48.7545 38.4753 48.9889 38.5649 49.2078C38.6545 49.4267 38.7862 49.6256 38.9525 49.7933C39.1187 49.9609 39.3162 50.0939 39.5337 50.1846C39.7511 50.2754 39.9843 50.3221 40.2197 50.3221L52.7477 50.3569C53.2222 50.3569 53.6774 50.1674 54.0129 49.8301C54.3485 49.4928 54.537 49.0353 54.537 48.5582V30.122L33.9222 13.0639C33.6799 12.8675 33.3779 12.7605 33.0667 12.7605C32.7554 12.7605 32.4535 12.8675 32.2111 13.0639ZM64.7813 24.6664L55.4317 16.9198V1.349C55.4317 0.99122 55.2903 0.648098 55.0387 0.395112C54.787 0.142126 54.4456 0 54.0897 0H47.8268C47.4709 0 47.1296 0.142126 46.8779 0.395112C46.6262 0.648098 46.4848 0.99122 46.4848 1.349V9.51155L36.4721 1.23096C35.5112 0.436152 34.3055 0.00158883 33.0611 0.00158883C31.8167 0.00158883 30.6109 0.436152 29.6501 1.23096L1.34088 24.6664C1.20499 24.7793 1.09256 24.918 1.01001 25.0746C0.927467 25.2312 0.876428 25.4026 0.859811 25.579C0.843193 25.7555 0.861323 25.9335 0.913164 26.1029C0.965006 26.2722 1.04954 26.4297 1.16194 26.5662L4.01378 30.0511C4.12587 30.1882 4.26375 30.3016 4.41952 30.385C4.57528 30.4683 4.74588 30.52 4.92154 30.537C5.0972 30.5541 5.27448 30.5361 5.44322 30.4842C5.61197 30.4322 5.76886 30.3473 5.90493 30.2344L32.2111 8.45483C32.4535 8.25847 32.7554 8.15139 33.0667 8.15139C33.3779 8.15139 33.6799 8.25847 33.9222 8.45483L60.2295 30.2344C60.3653 30.3474 60.522 30.4323 60.6905 30.4844C60.859 30.5366 61.0361 30.5548 61.2116 30.5381C61.3871 30.5214 61.5577 30.4701 61.7134 30.3871C61.8692 30.3041 62.0072 30.1911 62.1196 30.0545L64.9714 26.5696C65.0837 26.4323 65.1678 26.274 65.2191 26.1039C65.2703 25.9338 65.2876 25.7551 65.2699 25.5783C65.2522 25.4014 65.2 25.2298 65.1161 25.0733C65.0323 24.9168 64.9185 24.7785 64.7813 24.6664Z" fill="#F1FBFF"/>
</svg>
